:FULLY-SPECIFIED
:FORCE-ALL-JOINTS-BE-3DOF
:DEGREES
577
root 7.03942 16.3617 -3.59681 -159.372 73.1263 -166.453
lfemur -17.2777 -1.60521 -19.4203
ltibia 45.1305 0 0
lfoot -32.8093 10.2998 0
ltoes 6.94418 0 0
rfemur -51.7459 -12.3713 14.0871
rtibia 46.2681 0 0
rfoot 9.75345 5.75657 0
rtoes -31.0209 0 0
lowerback 6.79596 -0.842354 -2.17696
upperback 2.34045 -1.09137 3.51179
thorax -1.28067 -0.516412 4.93985
lowerneck -5.44131 -13.2847 -3.89086
upperneck 10.3978 -18.0041 5.04495
head 4.83406 -8.70521 1.00255
lclavicle 1.12483e-14 -8.41683e-15 0
lhumerus -40.61 -17.7463 94.2532
lradius 55.5972 0 0
lwrist 22.1417 0 0
lhand -20.8382 -4.2443 0
lfingers 7.12502 0 0
lthumb 5.53015 25.6528 0
rclavicle 1.12483e-14 -8.41683e-15 0
rhumerus 28.0972 14.8281 -73.7864
rradius 132.816 0 0
rwrist -46.2593 0 0
rhand -26.1939 -21.7969 0
rfingers 7.12502 0 0
rthumb 0.35846 -771.775 0
578
root 7.00474 16.3726 -3.60373 -155.221 72.3704 -162.333
lfemur -17.2636 -0.900688 -19.5358
ltibia 44.9377 0 0
lfoot -32.8817 10.7294 0
ltoes 7.48317 0 0
rfemur -51.7913 -12.5255 14.3655
rtibia 46.8897 0 0
rfoot 9.78162 6.35543 0
rtoes -30.4807 0 0
lowerback 6.69702 -0.91612 -2.22224
upperback 2.26831 -1.19365 3.45544
thorax -1.29062 -0.567125 4.90949
lowerneck -5.54145 -13.1542 -3.78311
upperneck 10.5271 -17.8407 4.98419
head 4.87354 -8.62002 0.972663
lclavicle 1.36919e-14 -7.85441e-15 0
lhumerus -40.1416 -18.4484 94.2914
lradius 55.7039 0 0
lwrist 22.0944 0 0
lhand -20.5942 -4.16029 0
lfingers 7.12502 0 0
lthumb 5.76552 25.7256 0
rclavicle 1.36919e-14 -7.85441e-15 0
rhumerus 27.8962 14.4932 -73.7139
rradius 132.262 0 0
rwrist -46.5786 0 0
rhand -26.277 -21.9113 0
rfingers 7.12502 0 0
rthumb 0.278212 -771.889 0
579
root 6.97007 16.3835 -3.61066 -151.069 71.6145 -158.212
lfemur -17.2495 -0.196167 -19.6513
ltibia 44.745 0 0
lfoot -32.9541 11.1589 0
ltoes 8.02217 0 0
rfemur -51.8368 -12.6796 14.644
rtibia 47.5113 0 0
rfoot 9.80978 6.95429 0
rtoes -29.9405 0 0
lowerback 6.59808 -0.989887 -2.26752
upperback 2.19616 -1.29593 3.39909
thorax -1.30057 -0.617837 4.87914
lowerneck -5.64159 -13.0237 -3.67536
upperneck 10.6563 -17.6772 4.92343
head 4.91303 -8.53483 0.942777
lclavicle 1.61355e-14 -7.292e-15 0
lhumerus -39.6732 -19.1505 94.3296
lradius 55.8107 0 0
lwrist 22.0471 0 0
lhand -20.3502 -4.07628 0
lfingers 7.12502 0 0
lthumb 6.0009 25.7983 0
rclavicle 1.61355e-14 -7.292e-15 0
rhumerus 27.6951 14.1583 -73.6413
rradius 131.709 0 0
rwrist -46.8979 0 0
rhand -26.3601 -22.0257 0
rfingers 7.12502 0 0
rthumb 0.197964 -772.003 0
580
root 6.93539 16.3944 -3.61758 -146.918 70.8586 -154.092
lfemur -17.2354 0.508354 -19.7668
ltibia 44.5522 0 0
lfoot -33.0265 11.5884 0
ltoes 8.56117 0 0
rfemur -51.8822 -12.8338 14.9225
rtibia 48.1328 0 0
rfoot 9.83795 7.55315 0
rtoes -29.4004 0 0
lowerback 6.49915 -1.06365 -2.31281
upperback 2.12401 -1.39821 3.34274
thorax -1.31053 -0.66855 4.84878
lowerneck -5.74173 -12.8931 -3.56761
upperneck 10.7856 -17.5138 4.86267
head 4.95252 -8.44963 0.912891
lclavicle 1.85791e-14 -6.72958e-15 0
lhumerus -39.2048 -19.8527 94.3678
lradius 55.9174 0 0
lwrist 21.9999 0 0
lhand -20.1062 -3.99227 0
lfingers 7.12502 0 0
lthumb 6.23628 25.8711 0
rclavicle 1.85791e-14 -6.72958e-15 0
rhumerus 27.4941 13.8234 -73.5687
rradius 131.156 0 0
rwrist -47.2173 0 0
rhand -26.4432 -22.1401 0
rfingers 7.12502 0 0
rthumb 0.117716 -772.117 0
581
root 6.90071 16.4053 -3.6245 -142.767 70.1027 -149.972
lfemur -17.2213 1.21287 -19.8823
ltibia 44.3594 0 0
lfoot -33.0989 12.0179 0
ltoes 9.10017 0 0
rfemur -51.9277 -12.9879 15.201
rtibia 48.7544 0 0
rfoot 9.86611 8.152 0
rtoes -28.8602 0 0
lowerback 6.40021 -1.13742 -2.35809
upperback 2.05186 -1.50049 3.28639
thorax -1.32048 -0.719262 4.81842
lowerneck -5.84186 -12.7626 -3.45986
upperneck 10.9149 -17.3503 4.80191
head 4.99201 -8.36444 0.883005
lclavicle 2.10228e-14 -6.16716e-15 0
lhumerus -38.7364 -20.5548 94.406
lradius 56.0241 0 0
lwrist 21.9526 0 0
lhand -19.8622 -3.90826 0
lfingers 7.12502 0 0
lthumb 6.47166 25.9438 0
rclavicle 2.10228e-14 -6.16716e-15 0
rhumerus 27.2931 13.4885 -73.4961
rradius 130.603 0 0
rwrist -47.5366 0 0
rhand -26.5262 -22.2545 0
rfingers 7.12502 0 0
rthumb 0.0374683 -772.231 0
582
root 6.86603 16.4163 -3.63143 -138.616 69.3468 -145.851
lfemur -17.2071 1.9174 -19.9978
ltibia 44.1666 0 0
lfoot -33.1713 12.4475 0
ltoes 9.63917 0 0
rfemur -51.9731 -13.1421 15.4794
rtibia 49.376 0 0
rfoot 9.89428 8.75086 0
rtoes -28.32 0 0
lowerback 6.30127 -1.21119 -2.40337
upperback 1.97972 -1.60277 3.23004
thorax -1.33043 -0.769975 4.78807
lowerneck -5.942 -12.6321 -3.35211
upperneck 11.0441 -17.1869 4.74115
head 5.0315 -8.27925 0.85312
lclavicle 2.34664e-14 -5.60475e-15 0
lhumerus -38.268 -21.2569 94.4441
lradius 56.1309 0 0
lwrist 21.9053 0 0
lhand -19.6182 -3.82425 0
lfingers 7.12502 0 0
lthumb 6.70704 26.0166 0
rclavicle 2.34664e-14 -5.60475e-15 0
rhumerus 27.092 13.1536 -73.4236
rradius 130.05 0 0
rwrist -47.8559 0 0
rhand -26.6093 -22.3689 0
rfingers 7.12502 0 0
rthumb -0.0427797 -772.345 0
583
root 6.83135 16.4272 -3.63835 -134.465 68.5909 -141.731
lfemur -17.193 2.62192 -20.1133
ltibia 43.9738 0 0
lfoot -33.2437 12.877 0
ltoes 10.1782 0 0
rfemur -52.0186 -13.2962 15.7579
rtibia 49.9976 0 0
rfoot 9.92244 9.34972 0
rtoes -27.7798 0 0
lowerback 6.20233 -1.28495 -2.44865
upperback 1.90757 -1.70505 3.17369
thorax -1.34039 -0.820687 4.75771
lowerneck -6.04214 -12.5016 -3.24436
upperneck 11.1734 -17.0234 4.68039
head 5.07099 -8.19405 0.823234
lclavicle 2.591e-14 -5.04233e-15 0
lhumerus -37.7996 -21.9591 94.4823
lradius 56.2376 0 0
lwrist 21.858 0 0
lhand -19.3742 -3.74024 0
lfingers 7.12502 0 0
lthumb 6.94242 26.0893 0
rclavicle 2.591e-14 -5.04233e-15 0
rhumerus 26.891 12.8187 -73.351
rradius 129.497 0 0
rwrist -48.1753 0 0
rhand -26.6924 -22.4833 0
rfingers 7.12502 0 0
rthumb -0.123028 -772.459 0
584
root 6.79667 16.4381 -3.64528 -130.314 67.835 -137.61
lfemur -17.1789 3.32644 -20.2288
ltibia 43.781 0 0
lfoot -33.3161 13.3065 0
ltoes 10.7172 0 0
rfemur -52.064 -13.4504 16.0364
rtibia 50.6192 0 0
rfoot 9.95061 9.94857 0
rtoes -27.2396 0 0
lowerback 6.10339 -1.35872 -2.49393
upperback 1.83542 -1.80733 3.11734
thorax -1.35034 -0.8714 4.72736
lowerneck -6.14228 -12.3711 -3.13661
upperneck 11.3026 -16.86 4.61963
head 5.11047 -8.10886 0.793348
lclavicle 2.83536e-14 -4.47992e-15 0
lhumerus -37.3312 -22.6612 94.5205
lradius 56.3444 0 0
lwrist 21.8107 0 0
lhand -19.1302 -3.65623 0
lfingers 7.12502 0 0
lthumb 7.17779 26.1621 0
rclavicle 2.83536e-14 -4.47992e-15 0
rhumerus 26.6899 12.4838 -73.2784
rradius 128.943 0 0
rwrist -48.4946 0 0
rhand -26.7755 -22.5977 0
rfingers 7.12502 0 0
rthumb -0.203276 -772.573 0
585
root 6.76199 16.449 -3.6522 -126.162 67.0791 -133.49
lfemur -17.1648 4.03096 -20.3443
ltibia 43.5882 0 0
lfoot -33.3885 13.736 0
ltoes 11.2562 0 0
rfemur -52.1094 -13.6045 16.3149
rtibia 51.2408 0 0
rfoot 9.97877 10.5474 0
rtoes -26.6994 0 0
lowerback 6.00445 -1.43249 -2.53921
upperback 1.76327 -1.90961 3.06099
thorax -1.36029 -0.922112 4.697
lowerneck -6.24241 -12.2406 -3.02887
upperneck 11.4319 -16.6966 4.55887
head 5.14996 -8.02367 0.763462
lclavicle 3.07972e-14 -3.9175e-15 0
lhumerus -36.8628 -23.3633 94.5587
lradius 56.4511 0 0
lwrist 21.7634 0 0
lhand -18.8862 -3.57222 0
lfingers 7.12502 0 0
lthumb 7.41317 26.2348 0
rclavicle 3.07972e-14 -3.9175e-15 0
rhumerus 26.4889 12.1489 -73.2058
rradius 128.39 0 0
rwrist -48.8139 0 0
rhand -26.8586 -22.7121 0
rfingers 7.12502 0 0
rthumb -0.283524 -772.687 0
586
root 6.72732 16.4599 -3.65913 -122.011 66.3232 -129.37
lfemur -17.1507 4.73548 -20.4598
ltibia 43.3955 0 0
lfoot -33.4609 14.1656 0
ltoes 11.7952 0 0
rfemur -52.1549 -13.7587 16.5934
rtibia 51.8624 0 0
rfoot 10.0069 11.1463 0
rtoes -26.1592 0 0
lowerback 5.90551 -1.50626 -2.58449
upperback 1.69113 -2.01189 3.00465
thorax -1.37025 -0.972825 4.66665
lowerneck -6.34255 -12.1101 -2.92112
upperneck 11.5612 -16.5331 4.49811
head 5.18945 -7.93848 0.733576
lclavicle 3.32408e-14 -3.35508e-15 0
lhumerus -36.3944 -24.0654 94.5969
lradius 56.5578 0 0
lwrist 21.7161 0 0
lhand -18.6423 -3.48821 0
lfingers 7.12502 0 0
lthumb 7.64855 26.3076 0
rclavicle 3.32408e-14 -3.35508e-15 0
rhumerus 26.2878 11.814 -73.1332
rradius 127.837 0 0
rwrist -49.1332 0 0
rhand -26.9417 -22.8265 0
rfingers 7.12502 0 0
rthumb -0.363771 -772.801 0
587
root 6.69264 16.4708 -3.66605 -117.86 65.5673 -125.249
lfemur -17.1366 5.44 -20.5753
ltibia 43.2027 0 0
lfoot -33.5333 14.5951 0
ltoes 12.3342 0 0
rfemur -52.2003 -13.9128 16.8718
rtibia 52.484 0 0
rfoot 10.0351 11.7451 0
rtoes -25.619 0 0
lowerback 5.80657 -1.58002 -2.62977
upperback 1.61898 -2.11417 2.9483
thorax -1.3802 -1.02354 4.63629
lowerneck -6.44269 -11.9796 -2.81337
upperneck 11.6904 -16.3697 4.43735
head 5.22894 -7.85328 0.703691
lclavicle 3.56844e-14 -2.79267e-15 0
lhumerus -35.926 -24.7676 94.6351
lradius 56.6646 0 0
lwrist 21.6688 0 0
lhand -18.3983 -3.40421 0
lfingers 7.12502 0 0
lthumb 7.88393 26.3803 0
rclavicle 3.56844e-14 -2.79267e-15 0
rhumerus 26.0868 11.4791 -73.0607
rradius 127.284 0 0
rwrist -49.4526 0 0
rhand -27.0248 -22.9409 0
rfingers 7.12502 0 0
rthumb -0.444019 -772.915 0
588
root 6.65796 16.4817 -3.67297 -113.709 64.8114 -121.129
lfemur -17.1225 6.14452 -20.6908
ltibia 43.0099 0 0
lfoot -33.6057 15.0246 0
ltoes 12.8732 0 0
rfemur -52.2458 -14.067 17.1503
rtibia 53.1055 0 0
rfoot 10.0633 12.344 0
rtoes -25.0789 0 0
lowerback 5.70764 -1.65379 -2.67506
upperback 1.54683 -2.21645 2.89195
thorax -1.39015 -1.07425 4.60593
lowerneck -6.54283 -11.8491 -2.70562
upperneck 11.8197 -16.2062 4.37659
head 5.26843 -7.76809 0.673805
lclavicle 3.8128e-14 -2.23025e-15 0
lhumerus -35.4576 -25.4697 94.6733
lradius 56.7713 0 0
lwrist 21.6216 0 0
lhand -18.1543 -3.3202 0
lfingers 7.12502 0 0
lthumb 8.11931 26.4531 0
rclavicle 3.8128e-14 -2.23025e-15 0
rhumerus 25.8858 11.1442 -72.9881
rradius 126.731 0 0
rwrist -49.7719 0 0
rhand -27.1079 -23.0553 0
rfingers 7.12502 0 0
rthumb -0.524267 -773.029 0
589
root 6.62328 16.4926 -3.6799 -109.558 64.0555 -117.009
lfemur -17.1084 6.84904 -20.8063
ltibia 42.8171 0 0
lfoot -33.6781 15.4541 0
ltoes 13.4122 0 0
rfemur -52.2912 -14.2211 17.4288
rtibia 53.7271 0 0
rfoot 10.0914 12.9429 0
rtoes -24.5387 0 0
lowerback 5.6087 -1.72756 -2.72034
upperback 1.47468 -2.31873 2.8356
thorax -1.40011 -1.12496 4.57558
lowerneck -6.64296 -11.7185 -2.59787
upperneck 11.949 -16.0428 4.31583
head 5.30792 -7.6829 0.643919
lclavicle 4.05716e-14 -1.66783e-15 0
lhumerus -34.9892 -26.1718 94.7115
lradius 56.878 0 0
lwrist 21.5743 0 0
lhand -17.9103 -3.23619 0
lfingers 7.12502 0 0
lthumb 8.35469 26.5259 0
rclavicle 4.05716e-14 -1.66783e-15 0
rhumerus 25.6847 10.8093 -72.9155
rradius 126.178 0 0
rwrist -50.0912 0 0
rhand -27.191 -23.1697 0
rfingers 7.12502 0 0
rthumb -0.604515 -773.143 0
590
root 6.5886 16.5035 -3.68682 -105.407 63.2996 -112.888
lfemur -17.0943 7.55356 -20.9218
ltibia 42.6243 0 0
lfoot -33.7505 15.8837 0
ltoes 13.9512 0 0
rfemur -52.3367 -14.3753 17.7073
rtibia 54.3487 0 0
rfoot 10.1196 13.5417 0
rtoes -23.9985 0 0
lowerback 5.50976 -1.80132 -2.76562
upperback 1.40254 -2.42101 2.77925
thorax -1.41006 -1.17567 4.54522
lowerneck -6.7431 -11.588 -2.49012
upperneck 12.0782 -15.8793 4.25507
head 5.3474 -7.5977 0.614033
lclavicle 4.30152e-14 -1.10542e-15 0
lhumerus -34.5208 -26.874 94.7497
lradius 56.9848 0 0
lwrist 21.527 0 0
lhand -17.6663 -3.15218 0
lfingers 7.12502 0 0
lthumb 8.59006 26.5986 0
rclavicle 4.30152e-14 -1.10542e-15 0
rhumerus 25.4837 10.4745 -72.8429
rradius 125.624 0 0
rwrist -50.4106 0 0
rhand -27.2741 -23.2841 0
rfingers 7.12502 0 0
rthumb -0.684763 -773.257 0
